<svg width="24" height="24" viewBox="0 0 24 24" fill="none" xmlns="http://www.w3.org/2000/svg">
<path d="M7.3125 12.7969C8.27995 12.7969 9.21011 13.1574 9.92383 13.8037L10.0635 13.9365C10.7931 14.6662 11.2031 15.6556 11.2031 16.6875C11.2031 17.361 11.0285 18.0213 10.6982 18.6045L10.5479 18.8486C10.1737 19.4086 9.66108 19.8606 9.0625 20.1621L8.80176 20.2822C8.17979 20.5399 7.50285 20.6306 6.83789 20.5488L6.55371 20.5029C5.89347 20.3716 5.27993 20.0721 4.77246 19.6348L4.56152 19.4385C4.08546 18.9624 3.74242 18.3722 3.56348 17.7266L3.49707 17.4463C3.36577 16.786 3.40828 16.1049 3.61816 15.4688L3.71777 15.1982C3.97547 14.5762 4.38987 14.0335 4.91797 13.6211L5.15137 13.4521C5.79108 13.0248 6.54319 12.7969 7.3125 12.7969ZM16.6875 12.7969C17.655 12.7969 18.5851 13.1574 19.2988 13.8037L19.4385 13.9365C20.1681 14.6662 20.5781 15.6556 20.5781 16.6875C20.5781 17.361 20.4035 18.0213 20.0732 18.6045L19.9229 18.8486C19.5487 19.4086 19.0361 19.8606 18.4375 20.1621L18.1768 20.2822C17.5548 20.5399 16.8779 20.6306 16.2129 20.5488L15.9287 20.5029C15.2685 20.3716 14.6549 20.0721 14.1475 19.6348L13.9365 19.4385C13.4605 18.9624 13.1174 18.3722 12.9385 17.7266L12.8721 17.4463C12.722 16.6916 12.7983 15.9091 13.0928 15.1982C13.3505 14.5762 13.7649 14.0335 14.293 13.6211L14.5264 13.4521C15.1661 13.0248 15.9182 12.7969 16.6875 12.7969ZM7.97656 15.085C7.6598 14.9538 7.3109 14.9195 6.97461 14.9863C6.68008 15.0449 6.406 15.1788 6.17969 15.374L6.08594 15.4609C5.84338 15.7035 5.67825 16.0132 5.61133 16.3496C5.55287 16.6439 5.5714 16.9479 5.66504 17.2314L5.70996 17.3516C5.82486 17.6289 6.00966 17.8709 6.24512 18.0547L6.34863 18.1299C6.63385 18.3205 6.96947 18.4219 7.3125 18.4219C7.71506 18.4219 8.10346 18.2823 8.41211 18.0293L8.53906 17.9141C8.86432 17.5888 9.04688 17.1475 9.04688 16.6875C9.04687 16.3445 8.94546 16.0088 8.75488 15.7236C8.58813 15.4741 8.35952 15.273 8.09277 15.1387L7.97656 15.085ZM17.3516 15.085C17.0348 14.9538 16.6859 14.9195 16.3496 14.9863C16.0132 15.0532 15.7035 15.2184 15.4609 15.4609C15.2184 15.7035 15.0532 16.0132 14.9863 16.3496C14.9279 16.6439 14.9464 16.9479 15.04 17.2314L15.085 17.3516C15.2162 17.6684 15.4385 17.9394 15.7236 18.1299C16.0088 18.3205 16.3445 18.4219 16.6875 18.4219C17.0901 18.4219 17.4785 18.2823 17.7871 18.0293L17.9141 17.9141C18.2393 17.5888 18.4219 17.1475 18.4219 16.6875C18.4219 16.3445 18.3205 16.0088 18.1299 15.7236C17.9631 15.4741 17.7345 15.273 17.4678 15.1387L17.3516 15.085ZM15.1982 3.71777C15.8202 3.46015 16.4972 3.36943 17.1621 3.45117L17.4463 3.49707C18.1065 3.6284 18.7201 3.92788 19.2275 4.36523L19.4385 4.56152C19.9145 5.03759 20.2576 5.62777 20.4365 6.27344L20.5029 6.55371C20.6342 7.21395 20.5917 7.89505 20.3818 8.53125L20.2822 8.80176C20.0245 9.42377 19.6101 9.96652 19.082 10.3789L18.8486 10.5479C18.2089 10.9752 17.4568 11.2031 16.6875 11.2031C15.72 11.2031 14.7899 10.8426 14.0762 10.1963L13.9365 10.0635C13.2069 9.33384 12.7969 8.34436 12.7969 7.3125C12.7969 6.63932 12.9718 5.97953 13.3018 5.39648L13.4521 5.15137C13.8263 4.59141 14.3389 4.13936 14.9375 3.83789L15.1982 3.71777ZM7.3125 3.42188C8.27995 3.42188 9.21011 3.78237 9.92383 4.42871L10.0635 4.56152C10.7931 5.29116 11.2031 6.28064 11.2031 7.3125C11.2031 7.98597 11.0285 8.64627 10.6982 9.22949L10.5479 9.47363C10.1737 10.0336 9.66108 10.4856 9.0625 10.7871L8.80176 10.9072C8.17979 11.1649 7.50285 11.2556 6.83789 11.1738L6.55371 11.1279C5.799 10.9778 5.10564 10.6076 4.56152 10.0635C4.08546 9.58741 3.74242 8.99723 3.56348 8.35156L3.49707 8.07129C3.36577 7.41105 3.40828 6.72995 3.61816 6.09375L3.71777 5.82324C3.97547 5.20123 4.38987 4.65848 4.91797 4.24609L5.15137 4.07715C5.79108 3.64984 6.54319 3.42188 7.3125 3.42188ZM7.97656 5.70996C7.6598 5.57875 7.3109 5.54453 6.97461 5.61133C6.68008 5.66991 6.406 5.80384 6.17969 5.99902L6.08594 6.08594C5.84338 6.32849 5.67825 6.63817 5.61133 6.97461C5.55287 7.26895 5.5714 7.57286 5.66504 7.85645L5.70996 7.97656C5.82486 8.25385 6.00966 8.49587 6.24512 8.67969L6.34863 8.75488C6.63385 8.94546 6.96947 9.04687 7.3125 9.04688C7.71506 9.04688 8.10346 8.90725 8.41211 8.6543L8.53906 8.53906C8.86432 8.2138 9.04688 7.77248 9.04688 7.3125C9.04687 7.01238 8.96938 6.71794 8.82227 6.45801L8.75488 6.34863C8.58813 6.0991 8.35952 5.89805 8.09277 5.76367L7.97656 5.70996ZM16.6875 5.57812C16.2849 5.57813 15.8965 5.71775 15.5879 5.9707L15.4609 6.08594C15.1357 6.4112 14.9531 6.85252 14.9531 7.3125C14.9531 7.65553 15.0545 7.99115 15.2451 8.27637C15.4119 8.52591 15.6405 8.72695 15.9072 8.86133L16.0234 8.91504C16.3402 9.04625 16.6891 9.08047 17.0254 9.01367C17.3199 8.95509 17.594 8.82116 17.8203 8.62598L17.9141 8.53906C18.1264 8.32673 18.2796 8.06339 18.3594 7.77539L18.3887 7.65039C18.4555 7.3141 18.4212 6.9652 18.29 6.64844C18.1751 6.37115 17.9903 6.12913 17.7549 5.94531L17.6514 5.87012C17.3662 5.67954 17.0305 5.57812 16.6875 5.57812Z" fill="#475569" stroke="#475569" stroke-width="0.09375"/>
</svg>
